<svg xmlns="http://www.w3.org/2000/svg" width="1080" height="1920" viewBox="0 0 1080 1920">
  <defs>
    <style>
      .cls-1 {
        fill: #db1a1a;
        fill-rule: evenodd;
      }
    </style>
  </defs>
  <path id="Forme_1_1" data-name="Forme 1 1" class="cls-1" d="M307.336,508.005l6.047,4.424,2.267,3.538,5.668,3.981,5.669,3.981,9.447,7.078,12.093,8.846,10.958,8.405,9.07,7.077,12.848,6.193,8.692,5.75,7.558,5.751L409.367,583.2l9.448,2.212,8.691-5.308,2.645-11.058,1.512-11.943,3.023-8.4,7.558-3.539,15.493-3.538,18.517-3.981,9.447-1.327,7.18,2.211,1.134,5.308-2.645,5.309-4.535,5.308-3.023,5.75-3.023,6.193-1.89,4.865v2.212l1.512,1.327,1.134-1.327,1.889-2.654,1.512-3.1,5.668-7.962h4.535l5.29,3.1,6.047,4.866L508,572.144l-2.645,5.308-6.046,4.866-10.581,8.847-14.738,10.616-12.471,8.4-10.959,3.1-11.714.885-14.738-2.212-13.226-4.423L400.3,600.9l-9.447-5.75-7.936-5.309-7.936-6.192-5.668-3.539-1.89-1.327-1.889,1.769-2.268,3.539-3.023,1.327h-3.4l-4.157-2.654-3.4-4.423-0.755-4.866-1.512-4.423-5.668-5.308L324.719,548.7l-8.691-6.635-3.023-3.539-3.4-.884-3.779,1.327-7.936,7.52-6.8,7.077-3.023,3.539,0.756,6.192-0.378,5.751-6.046,9.289-6.8,9.731-4.156,3.981H266.9l-2.645-2.212-3.023,4.424-0.756,5.308-1.512,11.058v11.059l1.134,5.75,1.889,6.193,2.268,6.635-0.378,5.75L260.1,650l-6.046-.884-7.18-5.308-6.425-5.308-6.046-5.751-3.4-4.866V622.57l3.779-5.308,3.4-7.519,0.756-7.52,1.511-7.52,2.268-7.52,3.4-7.077,3.4-7.077,4.157-6.193,4.912-7.077,9.07-13.27,4.534-5.309,9.07-9.289,7.936-7.962,9.069-8.4,4.157-4.866Zm1.252,6.371,2.522,1.845,2.206,3.689,6.934,5.534,5.989,4.059,9.771,7.379,11.347,8.486,12.293,8.855,9.456,6.641,13.554,7.748,8.195,4.8,6.3,5.534,12.608,9.224,12.607,2.952,10.4-7.379,4.413-15.127,0.63-11.069,2.837-5.165,4.413-1.845,15.129-3.32,18.282-3.69,8.195-1.476,3.467-.369-0.946,2.583-2.206,2.214-2.837,3.32-2.521,5.534-2.837,4.8-2.837,7.01-0.945,7.379,5.358,6.272,5.043-1.845,3.467-3.689,1.576-3.321,3.467-5.534,2.522-.738,3.467,2.952,2.837,1.844v2.583l-1.261.738-4.1,2.952-9.772,8.117-14.183,10.33-12.293,8.486L452,606.245l-11.662.738-13.554-2.214-11.662-3.69-10.4-6.272-9.456-5.9-6.934-4.8-8.2-5.9-6.3-4.8-5.043-.738-4.728,2.214-1.891,2.214-1.261,1.106-1.576-.737-2.207-1.107-1.576-1.845-0.315-3.321-1.261-5.534-6.619-6.272-17.02-15.127-9.771-8.486-4.1-3.32-5.358-1.845-6.3,2.213-8.511,7.748-6.619,6.642L284,555.329l0.63,7.38-0.315,4.058-4.728,6.272-5.359,7.748-2.206,3.321h-2.206l-5.989-.738-5.674,7.01-2.206,8.486L255.32,610.3v4.059l0.315,7.01,0.63,7.01,1.891,6.641,1.891,5.534,0.631,2.583-0.946.369L256.58,642.4l-4.728-4.427-5.988-5.535-4.413-3.689-2.837-2.214-0.63-2.214,2.521-2.582,4.1-10.331,1.576-9.224,0.63-6.641,2.207-6.272,2.836-5.165,2.837-5.9,4.413-7.01,4.413-7.01,9.456-13.282,5.043-5.534,8.195-8.486,7.565-8.486,8.825-8.117,3.467-4.427Z"/>
</svg>
